<svg id="adidas" xmlns="http://www.w3.org/2000/svg" viewBox="0 0 86.65 58.56"><title>adidas</title><path d="M73.94,38.29H57.06a.38.38,0,0,1-.39-.22L39.22,7.68l-.12-.21L51.82,0Z"/><path d="M24.34,20.83l12.9-7.3L51.46,38.29H38v3.63H34.34V38.51a.87.87,0,0,0-.11-.41L24.51,21Z"/><path d="M32.64,58.2H29v-.91l-.25.14A7.77,7.77,0,0,1,20.06,57a7.14,7.14,0,0,1-3-5.19,7.38,7.38,0,0,1,1.61-5.75,7.25,7.25,0,0,1,5.15-2.72,7.58,7.58,0,0,1,5.06,1.22H29V38.49h3.68ZM20.49,50.91a4.2,4.2,0,0,0,4.18,4.22h0A4.32,4.32,0,0,0,29,50.9a4.39,4.39,0,0,0-4.24-4.22A4.26,4.26,0,0,0,20.49,50.91Z"/><path d="M51.46,44.63V38.48h3.66V58.2H51.46v-.91h-.09a7,7,0,0,1-4.1,1.18,7.73,7.73,0,0,1-7.57-5.75A7.48,7.48,0,0,1,44,44a7.81,7.81,0,0,1,6.22-.12A11.77,11.77,0,0,1,51.46,44.63ZM47.22,55.14A4.21,4.21,0,0,0,51.45,51s0,0,0-.05a4.27,4.27,0,0,0-4.24-4.21A4.4,4.4,0,0,0,43,50.93,4.33,4.33,0,0,0,47.22,55.14Z"/><path d="M15.68,58.2H12v-.91l-.3.19a7.11,7.11,0,0,1-3,1,7.4,7.4,0,0,1-4.6-.8A7.58,7.58,0,0,1,6.22,43.49,7.85,7.85,0,0,1,12,44.68V43.55h3.68ZM12,50.92a4.26,4.26,0,0,0-4.23-4.23,4.39,4.39,0,0,0-4.23,4.23,4.32,4.32,0,0,0,4.23,4.23A4.2,4.2,0,0,0,12,51s0,0,0-.07Z"/><path d="M71.89,58.2h-3.5v-.91a13.86,13.86,0,0,1-1.26.61,7.71,7.71,0,0,1-7.95-1.11,7.24,7.24,0,0,1-2.73-5.13,7.38,7.38,0,0,1,1.89-5.77,7.24,7.24,0,0,1,5-2.49,7.62,7.62,0,0,1,5,1.27V43.54h3.51Zm-3.55-7.27a4.38,4.38,0,0,0-4.22-4.24,4.27,4.27,0,0,0-4.26,4.19A4.21,4.21,0,0,0,64,55.15h.05A4.31,4.31,0,0,0,68.34,50.93Z"/><path d="M29,38.34H12.08a.36.36,0,0,1-.37-.21c-.71-1.31-1.44-2.6-2.16-3.91L9.44,34l12.7-7.38Z"/><path d="M86.09,48.14H82.43a1.51,1.51,0,0,0-.07-.56,1.6,1.6,0,0,0-1.27-1.29,5.2,5.2,0,0,0-2.63,0,1.31,1.31,0,0,0-.9.73.86.86,0,0,0,.21,1.2l.12.07a4,4,0,0,0,1.18.48c1,.21,2,.37,3,.54A6.92,6.92,0,0,1,85,50.39a3.73,3.73,0,0,1,1.65,3.69,4.32,4.32,0,0,1-3,3.86,9.78,9.78,0,0,1-6.81,0,4.88,4.88,0,0,1-3.3-3.65c-.06-.27-.09-.55-.14-.85h3.88a1.16,1.16,0,0,0,.08.52,1.87,1.87,0,0,0,.85,1.33,3.56,3.56,0,0,0,3.7.13,2.17,2.17,0,0,0,.68-.65,1,1,0,0,0-.17-1.4l-.11-.08a3.18,3.18,0,0,0-1-.4c-.91-.19-1.83-.3-2.74-.5a21,21,0,0,1-2.37-.64,3.48,3.48,0,0,1-2.24-2.46,4.34,4.34,0,0,1,2.36-5.19,8.66,8.66,0,0,1,7.25.07,4.67,4.67,0,0,1,2.55,3.68C86.08,47.93,86.08,48,86.09,48.14Z"/><path d="M38,58.07H34.34V43.29H38Z"/><path d="M84.27,42.1A1.83,1.83,0,1,1,84,38.45h.27a1.83,1.83,0,1,1,.27,3.65Zm0-.25a1.58,1.58,0,1,0-1.48-1.68s0,.08,0,.12a1.48,1.48,0,0,0,1.4,1.56Z"/><path d="M83.65,39.29a7.81,7.81,0,0,1,.87,0,.55.55,0,0,1,.47.43.56.56,0,0,1-.19.61l-.14.11.34.78c-.31.08-.33.07-.45-.19l-.14-.32c-.13-.3-.13-.3-.49-.27v.85h-.27Zm.27.89h.42c.29,0,.32,0,.32-.34a.26.26,0,0,0-.2-.31h-.53Z"/></svg>