<svg xmlns="http://www.w3.org/2000/svg" xmlns:xlink="http://www.w3.org/1999/xlink" version="1.1" x="0px" y="0px" viewBox="0 0 472.7 499" enable-background="new 0 0 472.7 499" xml:space="preserve"><title>Carhartt_Popsocket_logos</title><path fill="#FEAD00" d="M472.3 132.3c-11.9 39.3-51.7 62-88.9 50.7s-57.7-52.2-45.8-91.5c3.9-13.1 11.2-24.8 21.1-34.2 0 0 24.8-24.4 64-10.8 -0.4 0-0.9 0-1.3 0 -23.7 0-42.9 21.2-42.9 47.3s19.2 47.3 42.9 47.3c18.7 0 34.6-13.2 40.5-31.6l0 0c1.1-3.4 1.8-6.9 2.1-10.5 0.2-1.1 0.3-2.4 0.3-2.4 1.5-16.4-1.4-45.6-33.6-68.9C387.1-3.1 325.6 0.1 325.6 0.1 216.4 0.1 127.9 90.5 127.9 202s88.5 202 197.7 202h146.7V132.3z"/><path d="M26.1 449.6C10 449.6 0 459.9 0 474.3c0 14.4 10.8 24.7 26.9 24.6h29.8v-10.8H23.4c-4.8 0-11.1-6-11.1-13.8s6.3-13.8 11.5-13.8h32.8v-10.9C56.6 449.6 29.7 449.6 26.1 449.6z"/><rect x="194.2" y="437.3" width="12.2" height="61.7"/><path d="M211.5 450.7c-3.1 2-1.5 11.2 0.5 10.6s7.7-3.8 16.5-2.1 14.6 11.6 3.3 37c-1.8 3.4 3.3 3.9 3.3 3.9l8.3-1c0 0 14-29.4 3-41.8S213 449.7 211.5 450.7z"/><polygon points="407.9 440.4 395.5 440.4 395.5 449.6 384.9 449.6 384.9 460.9 395.5 460.9 395.5 498.9 407.9 498.9 407.9 460.9 424.9 460.9 424.9 449.6 407.9 449.6 "/><polygon points="455.7 449.6 455.7 440.4 443.3 440.4 443.3 449.6 432.7 449.6 432.7 460.9 443.3 460.9 443.3 498.9 455.7 498.9 455.7 460.9 472.7 460.9 472.7 449.6 "/><path d="M109.5 449.6H69.9v10.9h39.6c3.9 0 6.1 2.1 6.1 4.9v22.7H80.4c-3.7 0-6.1-2.3-6.1-5s2.2-4.9 6.1-4.9h30.8v-10.4H80.3c-12.1 0-18.3 8.7-18.3 15.9 0 9.1 8.4 15.3 18.5 15.3h47.3v-33.5C127.9 458.3 121.6 449.6 109.5 449.6z"/><path d="M302.6 449.6h-39.7v10.9h39.6c3.9 0 6.1 2.1 6.1 4.9v22.7h-35.2c-3.7 0-6.1-2.3-6.1-5s2.2-4.9 6.1-4.9h30.8v-10.5h-30.8c-12.1 0-18.3 8.7-18.3 15.9 0 9.1 8.4 15.3 18.5 15.3h47.3v-33.5C320.9 458.3 314.7 449.6 302.6 449.6z"/><rect x="135.6" y="449.6" width="12.2" height="49.4"/><path d="M181.6 453.9c-8.3-7.7-27.2-4-28.7-3.1 -3.1 2-1.4 11.2 0.5 10.6s4.9-3.8 13.7-2.1c5.6 1.1 9 5.1 8.6 14.7 -0.1 2.6 11.6 1.7 11.7-0.3C187.4 465.8 188.4 460.1 181.6 453.9z"/><rect x="328.6" y="449.6" width="12.2" height="49.4"/><path d="M374.6 453.9c-8.3-7.7-27.2-4-28.7-3.1 -3.1 2-1.4 11.2 0.5 10.6s5-3.8 13.7-2.1c5.6 1.1 9 5.1 8.6 14.7 -0.1 2.6 11.6 1.7 11.6-0.3C380.4 465.8 381.4 460.1 374.6 453.9z"/><path d="M467 488.2c-3 0-5.5 2.4-5.5 5.5 0 3 2.4 5.5 5.5 5.5 3 0 5.5-2.4 5.5-5.5 0 0 0 0 0 0C472.4 490.7 470 488.2 467 488.2 467 488.2 467 488.2 467 488.2zM467 498.2c-2.5 0-4.5-1.9-4.5-4.4 0-2.5 1.9-4.5 4.4-4.5 2.5 0 4.5 1.9 4.5 4.4 0 0 0 0 0 0.1C471.4 496.1 469.4 498.1 467 498.2 467 498.2 467 498.2 467 498.2z"/><path d="M469.5 492.3c0-1.2-0.7-1.8-2.2-1.8h-2.4v6.3h1v-2.8h0.8l1.8 2.8h1.2l-1.8-2.8c0.9 0 1.6-0.7 1.7-1.6C469.5 492.4 469.5 492.4 469.5 492.3zM465.9 493.2v-1.8h1.4c0.7 0 1.2 0.2 1.2 0.9s-0.5 0.9-1.5 0.9H465.9z"/></svg>