<svg id="a145d660-89a6-48d9-9a3f-93cbdfe46b29" data-name="Layer 1" xmlns="http://www.w3.org/2000/svg" viewBox="0 0 1969.48 708.81">
  <path d="M554.3,927c-128.2,150.5-251,337.1-252.3,476.6-.5,52.5,16.3,98.3,56.5,133,57.8,50,121.6,67.6,185,67.7,92.7.1,184.7-37.3,256.8-66.1,121.4-48.5,1462.9-631.1,1462.9-631.1,12.9-6.5,10.5-14.6-5.7-10.5-6.5,1.6-1460.4,395.6-1460.4,395.6a318.47,318.47,0,0,1-84.6,12.1c-111.7.7-211.2-61.4-210.4-192.1.3-50.9,16-112.6,52.2-185.2Z" transform="translate(-301.99 -895.49)"/>
</svg>
