<svg id="hanes" xmlns="http://www.w3.org/2000/svg" viewBox="0 0 63.05 54.9"><title>hanes</title><path d="M72.45,28.5a28.59,28.59,0,0,1-1.75-10,28.62,28.62,0,0,0-1.75-10,43.45,43.45,0,0,0-4.44-8A1.08,1.08,0,0,0,63.08.2,78.82,78.82,0,0,1,51.9,5.79,49.73,49.73,0,0,1,38.74,8.66,49.71,49.71,0,0,0,25.62,11.5a78.71,78.71,0,0,0-11.18,5.59.93.93,0,0,0-.33,1.27l0,.07a43.46,43.46,0,0,1,4.42,8.07,28.59,28.59,0,0,1,1.75,10,28.65,28.65,0,0,0,1.75,10,43.61,43.61,0,0,0,4.44,8,1.09,1.09,0,0,0,1.43.3,78.89,78.89,0,0,1,11.18-5.59,49.79,49.79,0,0,1,13.15-2.87A49.64,49.64,0,0,0,65.4,43.5a78.75,78.75,0,0,0,11.18-5.59.93.93,0,0,0,.32-1.28l0-.06A43.45,43.45,0,0,1,72.45,28.5Z" transform="translate(-13.97 -0.05)" fill="#e13b2b"/><path d="M32.19,25.9h-5.5v4a2.12,2.12,0,0,0,.26,1.27,1.4,1.4,0,0,0,1.08.3h.12V32H23.67V31.5h.13a1.41,1.41,0,0,0,1.07-.3,2.15,2.15,0,0,0,.25-1.28v-8a2.13,2.13,0,0,0-.26-1.27,1.41,1.41,0,0,0-1.07-.3h-.12v-.49h4.48v.49H28a1.42,1.42,0,0,0-1.08.3,2.11,2.11,0,0,0-.26,1.27v3.39h5.51v-3.4a2.11,2.11,0,0,0-.26-1.27,1.41,1.41,0,0,0-1.08-.3h-.12v-.49h4.49v.49h-.13a1.4,1.4,0,0,0-1.07.3,2.13,2.13,0,0,0-.25,1.27v8A2.15,2.15,0,0,0,34,31.18a1.4,1.4,0,0,0,1.07.3h.12V32H30.75V31.5h.12a1.4,1.4,0,0,0,1.08-.31,2.12,2.12,0,0,0,.25-1.27v-4Z" transform="translate(-13.97 -0.05)" fill="#fff"/><path d="M40.08,30.5a2.15,2.15,0,0,1-1.61.82,1.2,1.2,0,0,1-.91-.41,1.38,1.38,0,0,1-.39-1,1.59,1.59,0,0,1,.56-1.32,8.17,8.17,0,0,1,2.37-1l.44-.14V29A2.17,2.17,0,0,1,40.08,30.5Zm1.11,1.28a1.33,1.33,0,0,0,1,.44,3.09,3.09,0,0,0,1.52-.43v-.46a4,4,0,0,1-.52,0,1,1,0,0,1-1-.47A4.61,4.61,0,0,1,42,29v-3.7a2.31,2.31,0,0,0-.58-1.78,2.76,2.76,0,0,0-1.9-.54,4.25,4.25,0,0,0-2.66.82,2.32,2.32,0,0,0-1.08,1.78v.23l1.68-.54V24.9a1.14,1.14,0,0,1,.36-.92,1.63,1.63,0,0,1,1.08-.31,1.92,1.92,0,0,1,1.17.35,1,1,0,0,1,.41.53,4.4,4.4,0,0,1,.1,1.12V26.9l-1.06.31a9.49,9.49,0,0,0-3,1.29,2.05,2.05,0,0,0-.33,3.12,1.92,1.92,0,0,0,1.43.58,3.19,3.19,0,0,0,1.63-.45,5.13,5.13,0,0,0,1.45-1.33,2.51,2.51,0,0,0,.52,1.33Z" transform="translate(-13.97 -0.05)" fill="#fff"/><path d="M46.37,25.27v4.6a2.09,2.09,0,0,0,.26,1.27,1.46,1.46,0,0,0,1.1.3h.1v.48H43.51V31.5h.14a1.38,1.38,0,0,0,1.06-.3A2.15,2.15,0,0,0,45,29.92V26.36A3.72,3.72,0,0,0,44.8,25a1.67,1.67,0,0,0-.85-.6l-.44-.19v-.12L46.41,23v1.8a8.28,8.28,0,0,1,1.77-1.36A3.32,3.32,0,0,1,49.75,23a2.31,2.31,0,0,1,1.76.72,3.91,3.91,0,0,1,.71,2.7v3.47a2.13,2.13,0,0,0,.26,1.27,1.43,1.43,0,0,0,1.08.3h.11v.48H49.28v-.49h.13a1.39,1.39,0,0,0,1.09-.28,2.15,2.15,0,0,0,.25-1.27v-3.5a2.87,2.87,0,0,0-.38-1.67,1.43,1.43,0,0,0-1.24-.51,3.59,3.59,0,0,0-1.33.31,6.49,6.49,0,0,0-1.43.82Z" transform="translate(-13.97 -0.05)" fill="#fff"/><path d="M55.94,24.34a2,2,0,0,1,1.66-.9,1.58,1.58,0,0,1,1.3.64,2.62,2.62,0,0,1,.51,1.67.79.79,0,0,1-.46.84,8.23,8.23,0,0,1-2.21.18H55.14A4.76,4.76,0,0,1,56,24.34Zm2.49,6.84a3.13,3.13,0,0,1-2.38-1,3.58,3.58,0,0,1-1-2.54v-.37h6V27a4.48,4.48,0,0,0-.91-3,3.12,3.12,0,0,0-2.52-1.06,3.89,3.89,0,0,0-3,1.32,4.7,4.7,0,0,0-1.12,3.31,4.57,4.57,0,0,0,1.25,3.3,4.23,4.23,0,0,0,3.19,1.29,6.67,6.67,0,0,0,3.31-1v-.73a5.93,5.93,0,0,1-2.77.74Z" transform="translate(-13.97 -0.05)" fill="#fff"/><path d="M62.09,31.56l-.19-2.2h.6v.14q.34,2.14,2.2,2.14a2,2,0,0,0,1.38-.5,1.55,1.55,0,0,0,.58-1.21,1.14,1.14,0,0,0-.3-.77,6.31,6.31,0,0,0-1.44-.94l-.74-.4q-2.12-1.16-2.13-2.59a2,2,0,0,1,.78-1.68,3.32,3.32,0,0,1,2.11-.62,7.32,7.32,0,0,1,2.48.49v1.81H66.8v-.15a3.59,3.59,0,0,0-.15-.64,1.44,1.44,0,0,0-.27-.48,1.66,1.66,0,0,0-.5-.38,2,2,0,0,0-.94-.17,1.53,1.53,0,0,0-1.07.38,1.25,1.25,0,0,0-.42,1q0,.87,1.65,1.78l.82.45a5.87,5.87,0,0,1,1.66,1.22,2.32,2.32,0,0,1-.45,3.22,3.89,3.89,0,0,1-2.41.69,5.53,5.53,0,0,1-2.66-.58Z" transform="translate(-13.97 -0.05)" fill="#fff"/><path d="M68.92,2.89a1.2,1.2,0,0,1-.42-.09,1.13,1.13,0,0,1-.38-.25,1.2,1.2,0,0,1-.25-.38,1.32,1.32,0,0,1,0-1,1.17,1.17,0,0,1,.25-.38,1.22,1.22,0,0,1,1.69,0,1.18,1.18,0,0,1,.25.38,1.32,1.32,0,0,1,0,1,1.22,1.22,0,0,1-.25.38,1.13,1.13,0,0,1-.38.25A1.2,1.2,0,0,1,68.92,2.89Zm0-.16a1,1,0,0,0,.4-.08.9.9,0,0,0,.32-.22,1,1,0,0,0,.21-.33,1.22,1.22,0,0,0,0-.85,1,1,0,0,0-.21-.33A.94.94,0,0,0,69.33.7a1,1,0,0,0-.8,0,.94.94,0,0,0-.31.22,1,1,0,0,0-.21.33,1.22,1.22,0,0,0,0,.85,1,1,0,0,0,.21.33.9.9,0,0,0,.31.22A1,1,0,0,0,68.92,2.73ZM68.51,1h.59a.42.42,0,0,1,.29.1.34.34,0,0,1,.11.26.3.3,0,0,1-.24.31h0a.24.24,0,0,1,.15.09.38.38,0,0,1,.06.19v.33h-.22V2A.23.23,0,0,0,69,1.74h-.31v.54h-.22ZM69,1.6a.24.24,0,0,0,.13-.1.19.19,0,0,0,.06-.15.21.21,0,0,0-.06-.15A.23.23,0,0,0,69,1.14h-.33V1.6Z" transform="translate(-13.97 -0.05)" fill="#e13b2b"/></svg>