<?xml version="1.0" encoding="utf-8"?>
<!-- Generator: Adobe Illustrator 24.1.3, SVG Export Plug-In . SVG Version: 6.00 Build 0)  -->
<svg version="1.1"
	 id="svg3716" xmlns:cc="http://creativecommons.org/ns#" xmlns:dc="http://purl.org/dc/elements/1.1/" xmlns:rdf="http://www.w3.org/1999/02/22-rdf-syntax-ns#" xmlns:svg="http://www.w3.org/2000/svg"
	 xmlns="http://www.w3.org/2000/svg" xmlns:xlink="http://www.w3.org/1999/xlink" x="0px" y="0px" viewBox="0 0 500 242.9"
	 enable-background="new 0 0 500 242.9" xml:space="preserve">
<g id="layer1" transform="translate(-46.532143030392,61.9795251142494)">
	<path id="path11595" fill="#FFFFFF" d="M515.7,172.7H284.2v-226h231.5V172.7z"/>
	<g id="g11661" transform="matrix(7.08011141869376,0,0,-7.08011141869376,322.021294752488,-0.400487956942726)">
		<path id="path11663" fill="#231F20" d="M0,0v-7.9h1.7v5.3l3.2-5C5-7.8,5.2-7.9,5.5-7.9h0.5c0.4,0,0.6,0.3,0.6,0.6v7.9H4.9v-5.3
			l-3.2,5C1.6,0.5,1.4,0.6,1.1,0.6H0.6C0.3,0.6,0,0.4,0,0 M0-10.7v-5.2c0-0.9,0.7-1.7,1.7-1.7h4.9v1.5H1.9c-0.1,0-0.2,0.1-0.2,0.2
			v1.9h4.5v1.5H1.7v1.8c0,0.1,0.1,0.2,0.2,0.2h4.7V-9H1.7v0C0.7-9,0-9.8,0-10.7 M7.5-10.7v-6.9h1.7v6.9c0,0.1,0.1,0.2,0.2,0.2h3.5
			c0.1,0,0.2-0.1,0.2-0.2v-1.6c0-0.1-0.1-0.2-0.2-0.2h-2.6c-0.1,0-0.2-0.1-0.3-0.2L9.4-14h2.1l1.8-3.6h1.9L13.3-14
			c0.8,0.1,1.5,0.8,1.5,1.7v1.6C14.8-9.8,14-9,13.1-9v0h-4v0C8.2-9,7.5-9.8,7.5-10.7 M14.8-6.2c0-0.9,0.7-1.7,1.7-1.7h4.9
			c0.9,0,1.7,0.8,1.7,1.7v6.9h-1.7v-6.9c0-0.1-0.1-0.2-0.2-0.2h-1.4v7.1h-1.7v-7.1h-1.4c-0.1,0-0.2,0.1-0.2,0.2v6.9h-1.7V-6.2z
			 M15.8-10.7v-6.9h1.7v6.9c0,0.1,0.1,0.2,0.2,0.2h3.4c0.1,0,0.2-0.1,0.2-0.2v-1.8h-2.7c-0.1,0-0.2-0.1-0.3-0.2L17.8-14h3.6v-3.6H23
			v6.9C23-9.8,22.3-9,21.3-9v0h-3.8v0C16.6-9,15.8-9.8,15.8-10.7 M9.1-7.9h4.7v1.5H9.4c-0.1,0-0.2,0.1-0.2,0.2v1.9h4.3v1.5H9.1v1.8
			c0,0.1,0.1,0.2,0.2,0.2h4.5v1.5H9.1v0c-0.9,0-1.7-0.8-1.7-1.7v-5.2C7.5-7.2,8.2-7.9,9.1-7.9L9.1-7.9z"/>
	</g>
	<g id="g11669" transform="matrix(7.08011141869376,0,0,-7.08011141869376,535.781125316887,171.273135496333)">
		<path id="path11671" fill="#231F20" d="M0,0h0.2c0.2,0,0.3,0.1,0.3,0.2c0,0.1-0.1,0.2-0.3,0.2H0V0z M0-0.7h-0.2v1.2h0.4
			c0.3,0,0.4-0.1,0.4-0.3c0-0.2-0.1-0.3-0.3-0.3l0.3-0.5H0.5L0.2-0.1H0V-0.7z M0.2,0.8c-0.5,0-0.8-0.4-0.8-0.8
			c0-0.5,0.4-0.8,0.8-0.8C0.7-0.9,1-0.6,1-0.1C1,0.4,0.7,0.8,0.2,0.8 M0.2,0.9c0.5,0,1-0.4,1-1c0-0.6-0.5-1-1-1c-0.6,0-1,0.4-1,1
			C-0.8,0.5-0.3,0.9,0.2,0.9"/>
	</g>
	<path id="path11673" fill="#231F20" d="M515.3,171.3H285.8V-52.4h229.5V171.3z M48.5-60L48.5-60v238.9h474.4V-60l0,0L48.5-60z"/>
	<g id="g11675" transform="matrix(7.08011141869376,0,0,-7.08011141869376,119.510984217799,8.6862260670527)">
		<path id="path11677" fill="#FFFFFF" d="M0,0c0,0,0.3-1,0.3-1.2c0,0.6,0.5,1,1.2,0.8c0.7-0.1,1.7-0.3,2.1-0.4
			c1.9-0.4,2.8-0.7,3.5-2.3l2.2-5.2C8.9-8,8.3-7.9,6.7-8.1l-0.4,0c0,0-1.1,3.1-1.5,4C4.5-3.2,4.1-2.6,3-2.5c-0.3,0-2.3,0.3-2.3,0.3
			l1.8-6.4l-4.1-0.5l-2,9.8L0,0z M15.2-4.1c0.6-0.1,0.9-0.3,1.1-0.6c0.1-0.1,0.2-0.4,0.2-0.4L10.4-5L9.7-3.5
			C9.7-3.5,14.8-4.1,15.2-4.1 M17.2-6.2l0.6-1L12-8.2l-0.8,1.6L17.2-6.2z M19-9.1c0,0-4.3-1.9-5.4-2.4c-1.4-0.6-2.6-0.5-3,0.5
			c-0.2,0.5-1.1,0.4-2.8-0.1l-8.5-2.5l-0.6,2.9c0,0,6.8,1.3,8.4,1.5c1.6,0.3,2.6,0.1,3-0.9c0.1-0.3,0.2-0.4,0.2-0.4l8,2.3L19-9.1z
			 M-4.2-16c0.1-0.9,1-1.3,1.9-1c0.9,0.3,7.9,3.1,9.1,3.5c1.5,0.6,2.3,0.7,2.6,0c0.4-1.1,1.8-1.2,3.4-0.3c1.4,0.8,7.4,4.3,7.4,4.3
			s-2.8,4.4-3.1,4.8c-0.4,0.7-1,1.2-2.2,1.4c-0.8,0.1-7.3,1.3-7.3,1.3c-0.4,0.8-1.4,1.7-3,2.1l-9.6,2.4c-1,0.2-1.7-0.4-1.6-1.4
			C-6.5,1.2-4.3-15.1-4.2-16"/>
	</g>
</g>
</svg>
