<svg xmlns="http://www.w3.org/2000/svg" xmlns:xlink="http://www.w3.org/1999/xlink" version="1.1" x="0px" y="0px" viewBox="0 0 345.2 217.6" enable-background="new 0 0 345.2 217.6" xml:space="preserve"><title>FP3315_Retail_Brands_Signage_V01</title><path fill="#28377D" d="M234.9 36.7c4 0.2 7.9 0.6 11.9 1.2 19.9 2.8 42.8 9.5 55.6 13.7 5.6 1.8 8.1 2.6 14.1 4.8 2.1 0.8 7.8 2.8 10.2 3.6 3.9 1.1 5.4 3.2 4.2-4.6 -1.7-7.7-6.8-13.4-17.5-21.5C253.4-11 123.7-8.5 64 24.2 -37.4 78.5-4.3 166.8 66.6 195.8c59.4 25 176.8 42.5 264.7-28.5 4.2-3.4 8.2-7.2 11.8-11.2 5-6 0.4-4.6-3.6-2.4 -21.7 10.9-78 24.7-103 26.5 -5.1 0.5-5.8 0.4-5.7-2.5V42.8C230.4 36.7 230.2 36.5 234.9 36.7z"/><path fill="#ED2024" d="M128.8 42.2v136c0.1 2.9-1.1 2.9-4.3 2.9 -136.2-16-114.8-133-0.1-145C129.1 35.6 128.9 36.1 128.8 42.2z"/><path fill="#28377D" d="M327.3 193.5c0-2-1.2-2.8-3.5-2.8H320v10h1.5v-4.3h1.7l2.6 4.3h1.7l-2.9-4.4c1.4 0 2.6-1.2 2.6-2.6C327.3 193.6 327.3 193.6 327.3 193.5zM321.5 195v-3.1h2.1c1 0 2.2 0.2 2.2 1.5 0 1.5-1.1 1.6-2.4 1.6H321.5z"/><path fill="#28377D" d="M323.3 187c-4.8 0-8.6 4-8.6 8.7 0 4.8 4 8.6 8.7 8.6 4.8 0 8.6-3.9 8.6-8.7C332.1 190.9 328.2 187 323.3 187 323.4 187 323.4 187 323.3 187zM323.3 202.9c-4 0.1-7.3-3-7.4-7 -0.1-4 3-7.3 7-7.4 4-0.1 7.3 3 7.4 7 0 0.1 0 0.1 0 0.2 0.1 3.9-2.9 7.1-6.8 7.2C323.5 202.9 323.4 202.9 323.3 202.9z"/></svg>