<svg xmlns="http://www.w3.org/2000/svg" xmlns:xlink="http://www.w3.org/1999/xlink" version="1.1" id="ogio-Layer_1" x="0px" y="0px" viewBox="0 0 137.6 25.2" xml:space="preserve" enable-background="new 0 0 137.6 25.2"><title>OGIO</title><g id="ogio-Layer_2_1_"><g id="ogio-Layer_1-2"><path d="M4.7 23.8c1.9 0.7 5.2 1.1 11.1 1.3 1.2 0 2.5 0 4 0h0.1v-6c0-0.3-0.2-0.5-0.5-0.5h-7.7c-0.9 0-1.6-0.7-1.6-1.5 0 0 0 0 0-0.1V8.2c0-0.9 0.7-1.6 1.6-1.6 0 0 0 0 0 0h7.7c0.3 0 0.5-0.2 0.5-0.5v-6h-0.1c-8.4 0-12.8 0.5-15.1 1.3 -3.5 1.3-4.2 5-4.4 8.1 0 0.6-0.1 1.8-0.1 3.1s0.1 2.5 0.1 3.1C0.4 18.8 1.2 22.5 4.7 23.8z"/><path d="M30.4 18.6h-7.8c-0.3 0-0.5 0.2-0.5 0.5v0 6.1h0.1c8.4 0 12.8-0.5 15.1-1.3 3.5-1.3 4.2-5 4.4-8.1 0-0.6 0.1-1.8 0.1-3.1s-0.1-2.5-0.1-3.1c-0.1-3.1-0.9-6.7-4.4-8.1 -1.9-0.7-5.2-1.1-11.1-1.3 -1.2 0-2.6 0-4 0h-0.1v6.1c0 0.3 0.2 0.5 0.5 0.5l0 0h7.8c0.8 0 1.5 0.7 1.5 1.5V17C31.9 17.9 31.2 18.6 30.4 18.6 30.4 18.6 30.4 18.6 30.4 18.6z"/><path d="M77.7 6.3c-2.1 0.8-2.5 3-2.6 4.8 0 0.3-0.1 1.1-0.1 1.8 0 0.7 0.1 1.5 0.1 1.9 0.1 1.8 0.5 4 2.6 4.8 1.4 0.5 4 0.8 9.3 0.8h11.6v-8.5h-8.1c-0.3 0-0.6 0.1-0.8 0.3l-2.2 2.1h5.5v2.2h-11c-0.5 0-1-0.4-1-1 0 0 0 0 0 0v-5.1c0-0.5 0.4-1 1-1l0 0h16.7V5.5H87C81.7 5.5 79.1 5.7 77.7 6.3z"/><path d="M71 6.8c-0.3-0.2-0.6-0.4-0.9-0.5 -1.4-0.5-4-0.8-9.3-0.8H60c-5.2 0-7.9 0.3-9.3 0.8 -2.1 0.8-2.5 3-2.6 4.8v3.7c0.1 1.6 0.4 3.4 1.9 4.4 0.2 0.1 0.4 0.2 0.6 0.3 1.4 0.5 4 0.8 9.2 0.8h0.9c5.2 0 7.9-0.3 9.3-0.8 2.1-0.8 2.5-3 2.6-4.8 0-0.3 0.1-1.1 0.1-1.9v-0.7c0-0.5 0-0.9 0-1.1C72.5 9.6 72.2 7.9 71 6.8zM65.8 16.4H54.8c-0.5 0-1-0.4-1-1v-5.1c0-0.5 0.4-1 1-1l0 0h11.1c0.5 0 1 0.4 1 1 0 0 0 0 0 0v5.1C66.8 16 66.4 16.4 65.8 16.4L65.8 16.4z"/><rect x="101.2" y="5.5" width="5.7" height="14.8"/><path d="M131.5 6.3c-1.4-0.5-4-0.8-9.2-0.8h-0.9c-5.2 0-7.9 0.3-9.3 0.8 -2.1 0.8-2.5 3-2.6 4.8 0 0.3-0.1 1.1-0.1 1.8 0 0.7 0.1 1.5 0.1 1.9 0.1 1.8 0.5 4 2.6 4.8 1.4 0.5 4 0.8 9.3 0.8h0.9c5.2 0 7.9-0.3 9.2-0.8 2.1-0.8 2.5-3 2.6-4.8 0-0.3 0.1-1.1 0.1-1.9 0-0.8 0-1.5 0-1.9C134 9.2 133.5 7 131.5 6.3zM127.3 16.4h-11c-0.5 0-1-0.4-1-1 0 0 0 0 0 0v-5.1c0-0.5 0.4-1 1-1l0 0h11c0.5 0 1 0.4 1 1v5.1C128.2 16 127.8 16.4 127.3 16.4L127.3 16.4z"/><path d="M136.1 2.7c0.8 0 1.4 0.6 1.4 1.4 0 0 0 0 0 0 0 0.8-0.6 1.4-1.4 1.4 -0.8 0-1.4-0.6-1.4-1.4C134.7 3.3 135.3 2.7 136.1 2.7L136.1 2.7zM136.1 2.9c-0.6 0-1.1 0.6-1.1 1.2 0 0.6 0.5 1.1 1.1 1.1s1.1-0.5 1.1-1.1C137.2 3.5 136.7 2.9 136.1 2.9 136.1 2.9 136.1 2.9 136.1 2.9L136.1 2.9zM135.8 4.9h-0.3V3.4c0.1 0 0.3 0 0.4 0 0.2 0 0.4 0 0.5 0.1 0.1 0.1 0.2 0.2 0.1 0.3 0 0.2-0.1 0.3-0.3 0.4l0 0c0.1 0 0.2 0.2 0.3 0.4 0 0.1 0 0.3 0.1 0.4h-0.3c-0.1-0.1-0.1-0.3-0.1-0.4 0-0.2-0.1-0.3-0.3-0.3 0 0 0 0 0 0h-0.2L135.8 4.9zM135.8 4.1h0.2c0.2 0 0.4-0.1 0.4-0.3s-0.1-0.3-0.4-0.3c-0.1 0-0.1 0-0.2 0V4.1z"/></g></g></svg>