<svg id="e368a5cc-e7a7-4623-b2f2-00665c81f0e6" data-name="svg7595" xmlns="http://www.w3.org/2000/svg" viewBox="0 0 1012.7 188.41">
  <path id="bdd9e50f-dd66-49f6-8259-2036c9e02b3a" data-name="path7420" d="M856.63,5.79c-9.89,0-24.77,8.26-24.77,19.2,0,9.15,6.42,13.84,15.62,13.84,11.51,0,29.69-4.91,29.69-19C877.17,8.25,866.53,5.79,856.63,5.79ZM287.38,13.94A1.07,1.07,0,0,0,286,15c-7.25,16.14-22.72,27.65-40,32.59a1.06,1.06,0,0,0-.78,1.12V58.92c0,1.51.78,1.12.78,1.12h9.71c1.09,0,.78.89.78.89v65.19c0,19.42,8.08,29.47,29,29.47,18.68,0,20.05-.46,34.83-11.05,0,0,.94-.33.44-1.46-.4-.9-4.24-9.93-4.57-11.05-.41-1.36-1.34-.55-1.34-.55-2.7,1.37-3.33,1.34-6.81,1.34s-9.38-1.34-9.38-8.26V60.93s-.22-.89,1-.89h14.84s.95.47,1.23-.89c.33-1.66,3.13-15.52,3.13-15.52s.42-1-.67-1H299.55s-.79.34-.79-.9v-8a91,91,0,0,1,1.34-16.41s.59-.84-.78-1.12C297.42,15.79,288.61,14.21,287.38,13.94Zm251.81,8.15c-12.43,0-16.55,3.35-19.31,11.61,0,0-1.87,5.42-2.45,7.37-.42,1.37-1.34,1-1.34,1-6.15-1-12.76-2.79-24.34-2.79-25.08,0-51.34,13.84-51.34,46,0,22.77,18.73,35.9,37.95,39.29,0,0,3,.45,0,1.34-5.7,1.65-17.65,8.74-31.25,10.93,0,0-1.36.15-.67,1.79.33.8,4.1,10.28,4.68,11.83.41,1.1,1.79.89,1.79.89,6.36-1.29,24.63.38,27.9.79,2.87.36,0,.78,0,.78-9.6,1.63-20.76,8.58-20.76,19,0,18.08,20.72,22.33,41,22.33,13.81,0,47.1-5.81,47.1-30.14S510.45,134.93,492,133.15c-3.15-.3,0-.89,0-.89,27.55-6.81,59.82-14.1,59.82-48.78,0-26.12-21.65-33-21.65-37.5,0-2.46,1.48-4.76,4.24-4.91,4.79-.28,5,.14,7.37,1.56,0,0,.7,1.19,1.11-.45.25-1,4.36-17.17,4.58-18.42.28-1.5-1-1.11-1-1.11-2.41-.23-4.9-.56-7.26-.56ZM160.36,34.14c-.49.15-.56.79-.56.79S146.51,67.6,146,69s.44,1.45.44,1.45,11,3.92,12.28,4.47,1.68-.34,1.68-.34c6-7.41,12.06-12,25-12,10.12,0,15.18,3.79,15.18,12.94V78.9c0,1.23-.45,1.34-.45,1.34L169,81c-20.48,0-37.06,14.74-37.06,40.63,0,20.77,15.67,33.94,36.61,33.94,12.39,0,22.16-5.34,31.15-12.5,0,0,1.48-2.33,1.89,0s1.28,5.31,1.9,7.92c.32,1.35,1.23,1.23,1.23,1.23h43.64s1.68.55,1.68-1.23V140.07s.32-1.23-1.45-1.23h-5c-1.09,0-.89-2-.89-2V76.34c0-26.35-17-37.06-42.75-37.06a72.08,72.08,0,0,0-26.45,4.58s-1.88,1.14-.79-1.46c.53-1.24,1-2.67,1-2.67a1.29,1.29,0,0,0-.78-1.79c-1.51-.55-10.21-3.19-11.83-3.8a1.08,1.08,0,0,0-.67,0Zm189.86,0c-.49.15-.56.79-.56.79S336.37,67.6,335.82,69s.45,1.45.45,1.45,11,3.92,12.28,4.47,1.67-.34,1.67-.34c6-7.41,11.95-12,24.89-12,10.13,0,15.18,3.79,15.18,12.94V78.9c0,1.24-.33,1.34-.33,1.34L358.81,81c-20.48,0-37.05,14.74-37.05,40.63,0,20.76,15.66,33.94,36.61,33.94,12.37,0,22.05-5.34,31-12.5,0,0,1.59-2.33,2,0s1.27,5.31,1.89,7.92c.32,1.36,1.23,1.23,1.23,1.23h43.53s1.79.55,1.79-1.23V140.07s.32-1.23-1.45-1.23h-5c-1.1,0-.9-2-.9-2V76.34c0-26.35-17.08-37.06-42.86-37.06a71.54,71.54,0,0,0-26.34,4.58S361.4,45,362.5,42.4a21.3,21.3,0,0,0,.89-2.79,1.17,1.17,0,0,0-.78-1.67c-1.51-.54-10.1-3.19-11.72-3.8a1.08,1.08,0,0,0-.67,0Zm561.33,0c-.49.15-.56.79-.56.79S897.7,67.6,897.15,69s.45,1.45.45,1.45,11,3.92,12.28,4.47,1.67-.34,1.67-.34c6-7.41,12-12,24.89-12,10.13,0,15.18,3.79,15.18,12.94V78.9c0,1.24-.33,1.34-.33,1.34L920.15,81c-20.49,0-37.06,14.74-37.06,40.63,0,20.76,15.67,33.94,36.61,33.94,12.38,0,22-5.34,31-12.5,0,0,1.59-2.33,2,0s1.28,5.31,1.9,7.92c.31,1.36,1.22,1.23,1.22,1.23h43.53s1.79.55,1.79-1.23V140.07s.33-1.23-1.45-1.23h-5c-1.1,0-.9-2-.9-2V76.34c0-26.35-17.08-37.06-42.86-37.06a71.58,71.58,0,0,0-26.34,4.58s-1.88,1.14-.78-1.46a21.3,21.3,0,0,0,.89-2.79,1.17,1.17,0,0,0-.78-1.67c-1.5-.54-10.1-3.19-11.72-3.8a1.08,1.08,0,0,0-.67,0ZM621.23,39.28c-36.59,0-64.85,22.1-64.85,58,0,36.16,28.26,58.27,64.85,58.27,36.83,0,65.19-22.11,65.19-58.27C686.42,61.38,658.06,39.28,621.23,39.28Zm154.48,0c-15.38,0-26.91,8.54-38.28,17.19,0,0-1.12,1.56-1.12-.22V40.17c0-1.23-1.12-.56-1.12-.56L686.64,52.45s-1,0-1,1.23V64.84c0,1.23,1.12.67,1.12.67s4.27-1,5.92-1.56,1.11.78,1.11.78v73.11a.73.73,0,0,1-.78,1h-6.58s-.79-.36-.79,1v11.27c0,1.51.79,1.12.79,1.12H744s.78.18.78-.78V139.85c0-1.37-1.11-1-1.11-1h-6.92c-1.1,0-.9-.78-.9-.78V76.23a2.18,2.18,0,0,1,.78-1.68c5.26-4.42,10.66-8.48,18.09-8.48,6.21,0,12.16,3.35,12.16,9.82v62.17s.32.78-.78.78h-6.7s-1.22-.09-1.22,1v11.61c0,1,1,.78,1,.78h56.59s1.12.39,1.12-1.12V139.85c0-1.23-1-1-1-1h-6c-1,0-.78-1.11-.78-1.11V71C809.09,58.7,804.94,39.28,775.71,39.28Zm-690.92.11c-10.21,0-18,4.15-27.79,10,0,0-1.12.53-1.12-.56V40.51a.83.83,0,0,0-1.12-.9L6.66,52s-1,0-1,1.23V64.39c0,1.51,1.12,1,1.12,1l5.58-1.34s1.34-.61,1.34.89V172a1.46,1.46,0,0,1-1.45,1.57H7s-1.34-.2-1.34,1.45V185.5c0,1.5,1.79,1.45,1.79,1.45H69.61s1.23-.47,1.23-1.56V175a1.3,1.3,0,0,0-1.34-1.45H57.22c-1.37,0-1.34-1.9-1.34-1.9V152.35c0-1.09.89-.67.89-.67,6.18,3.14,14.88,4,21.43,4,34.07,0,53.8-31.48,53.8-63C132,60.82,111.26,39.39,84.79,39.39Zm789.93.11a1.31,1.31,0,0,0-.56.11L825.83,52.9a.94.94,0,0,0-.89,1V64.73c0,1.5,1.33.89,1.33.89s3.17-.68,5.92-1.12c1.38-.22,1,1.06,1,2v71.22s.36,1.11-1,1.11h-6.81s-.89-.39-.89,1.12v11.38c0,1.37.89.9.89.9H882c1.37,0,.9-1.12.9-1.12s0-9.39,0-11.16c0-1.51-1-1.12-1-1.12h-5.58c-1.37,0-1-1-1-1V40.39c0-.68-.29-.86-.56-.89ZM490,53.34c17.26,0,24.33,33.71,24.33,45.77,0,10.71-3.43,15-11.94,15-17.26,0-24.45-33.71-24.45-45.76C477.91,57.58,481.45,53.34,490,53.34Zm124.12,2.91c23.24,0,30.25,41.08,30.25,57.14,0,12.06-3.32,25.23-15.74,25.23-23.25,0-30.14-41.08-30.14-57.15C598.46,73.21,598.42,56.25,614.09,56.25ZM62.47,63.05c7.13,0,27.45,2,27.45,42.2,0,25-6.06,33.48-19.86,33.48-11.05,0-14.18-8.26-14.18-18.08V65.84A1.92,1.92,0,0,1,57.11,64ZM193.84,94.42h5.58c1.37,0,1.12.89,1.12.89v20.54c0,8.48-2.14,16.3-12.73,16.3-11.28,0-13.72-9.83-13.72-18.53C174.09,102.23,182.33,94.42,193.84,94.42Zm189.87,0h5.58c1.36,0,1,.89,1,.89v20.54c0,8.48-2,16.3-12.61,16.3-11.28,0-13.84-9.82-13.84-18.53C363.84,102.23,372.2,94.42,383.71,94.42Zm561.33,0h5.58c1.36,0,1,.89,1,.89v20.54c0,8.48-2,16.3-12.61,16.3-11.27,0-13.84-9.82-13.84-18.53C925.17,102.23,933.53,94.42,945,94.42ZM497.11,157.15a.89.89,0,0,1,.45.11c7.58,4.62,13.06,8.1,13.06,18,0,5.58-2.95,8.26-8.71,8.26-6.45,0-9.49-6-9.49-11.61,0-4.92,1.77-12.29,3.46-14.06a1.76,1.76,0,0,1,1.23-.67Z" transform="translate(-5.65 -5.79)" fill="#231f20"/>
  <path id="b061d86f-a584-4b9d-a27a-d258a9920c9f" data-name="path7424" d="M1006.49,25.44a7.91,7.91,0,0,0-3.53-.59h-2.48v5.77h2.63a8.34,8.34,0,0,0,2.77-.35,2.46,2.46,0,0,0,1.71-2.5,2.42,2.42,0,0,0-1.1-2.33m-3.09-2.6a12.57,12.57,0,0,1,4.42.58,4,4,0,0,1,2.5,4.09,3.53,3.53,0,0,1-1.56,3.18,6.11,6.11,0,0,1-2.32.78,3.86,3.86,0,0,1,2.72,1.58,4.41,4.41,0,0,1,.86,2.49v1.18c0,.37,0,.77.05,1.2a2.23,2.23,0,0,0,.15.83l.1.2h-2.65a.75.75,0,0,1,0-.16.8.8,0,0,1,0-.18l-.06-.51V36.82c0-1.85-.52-3.08-1.55-3.68a7.2,7.2,0,0,0-3.22-.51h-2.28V39h-2.74V22.84Zm-8.65-.79a12.11,12.11,0,0,0-3.7,8.91,12.32,12.32,0,0,0,3.67,9,12.66,12.66,0,0,0,21.62-9,12.64,12.64,0,0,0-21.59-8.91m19.3,19.28a14.64,14.64,0,0,1-20.75,0,14.23,14.23,0,0,1-4.25-10.39,14,14,0,0,1,4.3-10.33,14.68,14.68,0,0,1,20.7,0,14,14,0,0,1,4.3,10.33,14.16,14.16,0,0,1-4.3,10.39" transform="translate(-5.65 -5.79)" fill="#231f20"/>
</svg>
